<svg xmlns="http://www.w3.org/2000/svg" xmlns:xlink="http://www.w3.org/1999/xlink" width="1220" height="277.1"><rect width="1220" height="277.1" rx="5" ry="5" class="a"/><svg y="0%" x="0%"><circle cx="20" cy="20" r="6" fill="#ff5f58"/><circle cx="40" cy="20" r="6" fill="#ffbd2e"/><circle cx="60" cy="20" r="6" fill="#18c132"/></svg><svg height="217.1" viewBox="0 0 118 21.71" width="1180" x="15" xmlns="http://www.w3.org/2000/svg" xmlns:xlink="http://www.w3.org/1999/xlink" y="50"><style>@keyframes k{0%{transform:translateX(0)}8.2%{transform:translateX(-118px)}57.5%{transform:translateX(-236px)}70.4%{transform:translateX(-354px)}71.9%{transform:translateX(-826px)}72%{transform:translateX(-1180px)}72.1%{transform:translateX(-1298px)}72.3%{transform:translateX(-1416px)}to{transform:translateX(-1534px)}}.a{fill:#282d35}.f{fill:#a8cc8c;font-weight:700}.g{fill:#b9c0cb}.h{fill:#71bef2;font-weight:700}</style><g font-size="1.67" font-family="Monaco,Consolas,Menlo,'Bitstream Vera Sans Mono','Powerline Symbols',monospace"><defs><symbol id="1"><text y="1.67" class="f">ssarwate@DESKTOP-ENAC7VC</text><text x="24.048" y="1.67" class="g">:</text><text x="25.05" y="1.67" class="h">/c/Users/Shubham</text><text x="42.084" y="1.67" class="h">Sarwate/Desktop/Cisco</text><text x="64.128" y="1.67" class="h">IoT</text><text x="67.134" y="1.67" class="g">$</text></symbol><symbol id="2"><text y="1.67" class="f">ssarwate@DESKTOP-ENAC7VC</text><text x="24.048" y="1.67" class="g">:</text><text x="25.05" y="1.67" class="h">/c/Users/Shubham</text><text x="42.084" y="1.67" class="h">Sarwate/Desktop/Cisco</text><text x="64.128" y="1.67" class="h">IoT</text><text x="67.134" y="1.67" class="g">$</text><text x="69.138" y="1.67" class="g">../../Downloads/ioxclient_1.7.2.1_linux_amd64/iox</text></symbol><symbol id="3"><text y="1.67" class="g">client</text><text x="7.014" y="1.67" class="g">docker</text><text x="14.028" y="1.67" class="g">package</text><text x="22.044" y="1.67" class="g">-a</text><text x="25.05" y="1.67" class="g">somebody/iox-test:latest</text><text x="50.1" y="1.67" class="g">.</text></symbol><symbol id="4"><text y="1.67" class="g">Currently</text><text x="10.02" y="1.67" class="g">active</text><text x="17.034" y="1.67" class="g">profile</text><text x="25.05" y="1.67" class="g">:</text><text x="28.056" y="1.67" class="g">default</text></symbol><symbol id="5"><text y="1.67" class="g">Command</text><text x="8.016" y="1.67" class="g">Name:</text><text x="15.03" y="1.67" class="g">docker-package</text></symbol><symbol id="6"><text y="1.67" class="g">Using</text><text x="6.012" y="1.67" class="g">the</text><text x="10.02" y="1.67" class="g">package</text><text x="18.036" y="1.67" class="g">descriptor</text><text x="29.058" y="1.67" class="g">file</text><text x="34.068" y="1.67" class="g">in</text><text x="37.074" y="1.67" class="g">the</text><text x="41.082" y="1.67" class="g">project</text><text x="49.098" y="1.67" class="g">dir</text></symbol><symbol id="7"><text y="1.67" class="g">Validating</text><text x="11.022" y="1.67" class="g">descriptor</text><text x="22.044" y="1.67" class="g">file</text><text x="27.054" y="1.67" class="g">package.yaml</text><text x="40.08" y="1.67" class="g">with</text><text x="45.09" y="1.67" class="g">package</text><text x="53.106" y="1.67" class="g">schema</text><text x="60.12" y="1.67" class="g">definitions</text></symbol><symbol id="8"><text y="1.67" class="g">Parsing</text><text x="8.016" y="1.67" class="g">descriptor</text><text x="19.038" y="1.67" class="g">file..</text></symbol><symbol id="9"><text y="1.67" class="g">Found</text><text x="6.012" y="1.67" class="g">schema</text><text x="13.026" y="1.67" class="g">version</text><text x="22.044" y="1.67" class="g">2.2</text></symbol><symbol id="10"><text y="1.67" class="g">Loading</text><text x="8.016" y="1.67" class="g">schema</text><text x="15.03" y="1.67" class="g">file</text><text x="20.04" y="1.67" class="g">for</text><text x="24.048" y="1.67" class="g">version</text><text x="33.066" y="1.67" class="g">2.2</text></symbol><symbol id="11"><text y="1.67" class="g">Validating</text><text x="11.022" y="1.67" class="g">package</text><text x="19.038" y="1.67" class="g">descriptor</text><text x="30.06" y="1.67" class="g">file..</text></symbol><symbol id="12"><text y="1.67" class="g">File</text><text x="5.01" y="1.67" class="g">package.yaml</text><text x="18.036" y="1.67" class="g">is</text><text x="21.042" y="1.67" class="g">valid</text><text x="27.054" y="1.67" class="g">under</text><text x="33.066" y="1.67" class="g">schema</text><text x="40.08" y="1.67" class="g">version</text><text x="48.096" y="1.67" class="g">2.2</text></symbol><symbol id="13"><text y="1.67" class="g">Generating</text><text x="11.022" y="1.67" class="g">IOx</text><text x="15.03" y="1.67" class="g">package</text><text x="23.046" y="1.67" class="g">of</text><text x="26.052" y="1.67" class="g">type</text><text x="31.062" y="1.67" class="g">docker</text><text x="38.076" y="1.67" class="g">with</text><text x="43.086" y="1.67" class="g">layers</text><text x="50.1" y="1.67" class="g">as</text><text x="53.106" y="1.67" class="g">rootfs</text></symbol><symbol id="14"><text y="1.67" class="g">Could</text><text x="6.012" y="1.67" class="g">not</text><text x="10.02" y="1.67" class="g">retrieve</text><text x="19.038" y="1.67" class="g">requested</text><text x="29.058" y="1.67" class="g">Docker</text><text x="36.072" y="1.67" class="g">image.</text></symbol><symbol id="15"><text y="1.67" class="g">Error</text><text x="6.012" y="1.67" class="g">occurred</text><text x="15.03" y="1.67" class="g">:</text><text x="18.036" y="1.67" class="g">dial</text><text x="23.046" y="1.67" class="g">unix</text><text x="28.056" y="1.67" class="g">/var/run/docker.sock:</text><text x="50.1" y="1.67" class="g">connect:</text><text x="59.118" y="1.67" class="g">no</text><text x="62.124" y="1.67" class="g">such</text><text x="67.134" y="1.67" class="g">file</text><text x="72.144" y="1.67" class="g">or</text><text x="75.15" y="1.67" class="g">directory</text></symbol><symbol id="a"><path fill="transparent" d="M0 0h118v10H0z"/></symbol><symbol id="b"><path fill="#6f7683" d="M0 0h1.102v2.171H0z"/></symbol></defs><path class="a" d="M0 0h118v21.71H0z"/><g style="animation-duration:10.96244s;animation-iteration-count:infinite;animation-name:k;animation-timing-function:steps(1,end)"><svg width="1652"><svg><use xlink:href="#a"/><use xlink:href="#b" x="-.004"/></svg><svg x="118"><use xlink:href="#a"/><use xlink:href="#b" x="68.996"/><use xlink:href="#1"/></svg><svg x="236"><use xlink:href="#a"/><use xlink:href="#b" x="50.996" y="2.146"/><use xlink:href="#2"/><use xlink:href="#3" y="2.171"/></svg><svg x="354"><use xlink:href="#a"/><use xlink:href="#b" x="-.004" y="4.317"/><use xlink:href="#2"/><use xlink:href="#3" y="2.171"/></svg><svg x="472"><use xlink:href="#a"/><use xlink:href="#b" x="-.004" y="8.659"/><use xlink:href="#2"/><use xlink:href="#3" y="2.171"/><use xlink:href="#4" y="4.342"/><use xlink:href="#5" y="6.513"/></svg><svg x="590"><use xlink:href="#a"/><use xlink:href="#b" x="-.004" y="10.83"/><use xlink:href="#2"/><use xlink:href="#3" y="2.171"/><use xlink:href="#4" y="4.342"/><use xlink:href="#5" y="6.513"/><use xlink:href="#6" y="8.684"/></svg><svg x="708"><use xlink:href="#a"/><use xlink:href="#b" x="-.004" y="15.172"/><use xlink:href="#2"/><use xlink:href="#3" y="2.171"/><use xlink:href="#4" y="4.342"/><use xlink:href="#5" y="6.513"/><use xlink:href="#6" y="8.684"/><use xlink:href="#7" y="10.855"/><use xlink:href="#8" y="13.026"/></svg><svg x="826"><use xlink:href="#a"/><use xlink:href="#b" x="-.004" y="19.514"/><use xlink:href="#2"/><use xlink:href="#3" y="2.171"/><use xlink:href="#4" y="4.342"/><use xlink:href="#5" y="6.513"/><use xlink:href="#6" y="8.684"/><use xlink:href="#7" y="10.855"/><use xlink:href="#8" y="13.026"/><use xlink:href="#9" y="15.197"/><use xlink:href="#10" y="17.368"/></svg><svg x="944"><use xlink:href="#a"/><use xlink:href="#b" x="-.004" y="19.514"/><use xlink:href="#3"/><use xlink:href="#4" y="2.171"/><use xlink:href="#5" y="4.342"/><use xlink:href="#6" y="6.513"/><use xlink:href="#7" y="8.684"/><use xlink:href="#8" y="10.855"/><use xlink:href="#9" y="13.026"/><use xlink:href="#10" y="15.197"/><use xlink:href="#11" y="17.368"/></svg><svg x="1062"><use xlink:href="#a"/><use xlink:href="#b" x="-.004" y="19.514"/><use xlink:href="#4"/><use xlink:href="#5" y="2.171"/><use xlink:href="#6" y="4.342"/><use xlink:href="#7" y="6.513"/><use xlink:href="#8" y="8.684"/><use xlink:href="#9" y="10.855"/><use xlink:href="#10" y="13.026"/><use xlink:href="#11" y="15.197"/><use xlink:href="#12" y="17.368"/></svg><svg x="1180"><use xlink:href="#a"/><use xlink:href="#b" x="-.004" y="19.514"/><use xlink:href="#5"/><use xlink:href="#6" y="2.171"/><use xlink:href="#7" y="4.342"/><use xlink:href="#8" y="6.513"/><use xlink:href="#9" y="8.684"/><use xlink:href="#10" y="10.855"/><use xlink:href="#11" y="13.026"/><use xlink:href="#12" y="15.197"/><use xlink:href="#13" y="17.368"/></svg><svg x="1298"><use xlink:href="#a"/><use xlink:href="#b" x="-.004" y="19.514"/><use xlink:href="#6"/><use xlink:href="#7" y="2.171"/><use xlink:href="#8" y="4.342"/><use xlink:href="#9" y="6.513"/><use xlink:href="#10" y="8.684"/><use xlink:href="#11" y="10.855"/><use xlink:href="#12" y="13.026"/><use xlink:href="#13" y="15.197"/><use xlink:href="#14" y="17.368"/></svg><svg x="1416"><use xlink:href="#a"/><use xlink:href="#b" x="68.996" y="19.514"/><use xlink:href="#7"/><use xlink:href="#8" y="2.171"/><use xlink:href="#9" y="4.342"/><use xlink:href="#10" y="6.513"/><use xlink:href="#11" y="8.684"/><use xlink:href="#12" y="10.855"/><use xlink:href="#13" y="13.026"/><use xlink:href="#14" y="15.197"/><use xlink:href="#15" y="17.368"/><use xlink:href="#1" y="19.539"/></svg><svg x="1534"><use xlink:href="#a"/><use xlink:href="#b" x="-.004" y="19.514"/><use xlink:href="#8"/><use xlink:href="#9" y="2.171"/><use xlink:href="#10" y="4.342"/><use xlink:href="#11" y="6.513"/><use xlink:href="#12" y="8.684"/><use xlink:href="#13" y="10.855"/><use xlink:href="#14" y="13.026"/><use xlink:href="#15" y="15.197"/><text y="19.038" class="f">ssarwate@DESKTOP-ENAC7VC</text><text x="24.048" y="19.038" class="g">:</text><text x="25.05" y="19.038" class="h">/c/Users/Shubham</text><text x="42.084" y="19.038" class="h">Sarwate/Desktop/Cisco</text><text x="64.128" y="19.038" class="h">IoT</text><text x="67.134" y="19.038" class="g">$</text><text x="69.138" y="19.038" class="g">exit</text></svg></svg></g></g></svg></svg>